<?xml version="1.0" encoding="UTF-8"?>
<svg id="a" data-name="Layer 1" xmlns="http://www.w3.org/2000/svg" viewBox="0 0 530 62.56">
  <defs>
    <style>
      .b, .c, .d, .e {
        stroke-width: 0px;
      }

      .c {
        fill: #5e37d2;
      }

      .d {
        fill: #ff7c60;
      }

      .e {
        fill: #ffca39;
      }
    </style>
  </defs>
  <g>
    <path class="b" d="M308.89,48.63V16.2h3.1v12.31c1.57-3.15,4.25-4.77,7.97-4.77,6.3,0,9.68,5.2,9.68,12.74s-3.29,12.74-9.68,12.74c-3.43,0-6.39-1.62-7.97-4.77v4.2h-3.1ZM311.99,38.47c0,4.63,2.81,8.01,7.39,8.01,4.29,0,6.92-2.81,6.92-6.34v-7.35c0-3.53-2.62-6.34-6.92-6.34-4.58,0-7.39,3.39-7.39,8.01v4.01Z"/>
    <path class="b" d="M341.99,44.1l7.01-19.79h3.43l-11.92,32.43h-7.3v-2.72h5.15l1.96-5.39-9.02-24.33h3.58l6.92,19.79h.19Z"/>
    <path class="b" d="M375.39,16.2c9.3,0,13.45,5.1,13.45,16.22s-4.15,16.22-13.45,16.22h-10.02V16.2h10.02ZM368.71,19.3v26.23h6.53c6.15,0,9.78-3.1,9.78-8.35v-9.54c0-5.25-3.58-8.35-9.73-8.35h-6.58Z"/>
    <path class="b" d="M407.78,31.94c0-4.29-2.34-5.49-5.77-5.49s-5.72,1.57-5.72,4.86h-3.1c0-4.53,3.67-7.58,8.92-7.58s8.73,2.58,8.73,8.3v13.88h3.58v2.72h-6.25l-.1-4.72h-.14c-1.34,3.43-4.1,5.29-7.73,5.29-2.38,0-4.58-.76-5.87-2.15-1.24-1.29-1.96-3.2-1.96-5.1,0-3.82,1.96-6.53,6.2-6.92l9.21-.86v-2.24ZM397.67,37.76c-1.48.14-2,.91-2,2.38v2.67c0,2.48,1.96,3.67,5.06,3.67,4.39,0,7.06-3.43,7.06-8.44v-1.19l-10.11.91Z"/>
    <path class="b" d="M421.9,45.91h5.82v2.72h-8.92v-21.61h-4.05v-2.72h4.05v-8.11h3.1v8.11h5.82v2.72h-5.82v18.89Z"/>
    <path class="b" d="M445.32,31.94c0-4.29-2.34-5.49-5.77-5.49s-5.72,1.57-5.72,4.86h-3.1c0-4.53,3.67-7.58,8.92-7.58s8.73,2.58,8.73,8.3v13.88h3.58v2.72h-6.25l-.1-4.72h-.14c-1.34,3.43-4.1,5.29-7.73,5.29-2.38,0-4.58-.76-5.87-2.15-1.24-1.29-1.96-3.2-1.96-5.1,0-3.82,1.96-6.53,6.2-6.92l9.21-.86v-2.24ZM435.21,37.76c-1.48.14-2,.91-2,2.38v2.67c0,2.48,1.96,3.67,5.06,3.67,4.39,0,7.06-3.43,7.06-8.44v-1.19l-10.11.91Z"/>
    <path class="b" d="M464.83,35.23c4.58.95,6.87,3.05,6.87,6.96s-3.43,7.01-9.16,7.01c-5.25,0-9.3-2.86-9.4-8.01h3.1c.1,3.48,3,5.29,6.34,5.29s6.01-1.48,6.01-4.25c0-2.43-1.34-3.48-4.87-4.24l-4.01-.86c-3.62-.76-5.96-2.72-5.96-6.58s3.43-6.82,8.44-6.82c4.34,0,8.63,2.29,8.73,7.58h-3.1c-.1-3.43-2.62-4.86-5.63-4.86-3.24,0-5.44,1.67-5.44,4.05s1.48,3.39,3.96,3.86l4.1.86Z"/>
    <path class="b" d="M479.29,19.97h-3.29v-3.29h3.29v3.29ZM476.09,48.63v-24.33h3.1v24.33h-3.1Z"/>
    <path class="b" d="M489.88,45.91h5.82v2.72h-8.92v-21.61h-4.05v-2.72h4.05v-8.11h3.1v8.11h5.82v2.72h-5.82v18.89Z"/>
    <path class="b" d="M517.83,41.14c-.57,5.2-4.77,8.06-9.68,8.06-6.92,0-10.02-5.29-10.02-12.74s3.39-12.74,9.97-12.74,9.97,5.44,9.97,11.64v2.05h-16.6v2.62c0,3.96,3.29,6.44,6.73,6.44s6.11-1.62,6.53-5.34h3.1ZM514.73,32.89c0-4.01-3.05-6.44-6.63-6.44s-6.63,2.43-6.63,6.44v1.81h13.26v-1.81Z"/>
    <path class="b" d="M524.7,15.47c2.93,0,5.3,2.38,5.3,5.3s-2.38,5.3-5.3,5.3-5.3-2.38-5.3-5.3,2.38-5.3,5.3-5.3ZM524.71,25.48c2.57,0,4.68-2.09,4.68-4.66s-2.11-4.68-4.68-4.68-4.66,2.11-4.66,4.68,2.09,4.66,4.66,4.66ZM523.62,21.33v1.99h-.67v-5.08h2.18c.97,0,1.51.54,1.51,1.54,0,.87-.42,1.39-1.14,1.51l1.18,2.03h-.78l-1.11-1.99h-1.18ZM525.34,20.75c.37,0,.55-.27.55-.58v-.79c0-.34-.19-.55-.55-.55h-1.72v1.93h1.72Z"/>
  </g>
  <g>
    <polygon class="e" points="11.72 22.49 .64 21.82 .68 29.04 11.76 28.23 11.72 22.49"/>
    <polygon class="c" points="15.63 14.73 3.86 6.39 0 12.51 12.56 19.6 15.63 14.73"/>
    <path class="b" d="M37.68,30.79c-1.85-.63-3.89-1.19-6.06-1.67-2.16-.52-3.92-1.11-5.23-1.75-1.29-.63-1.91-1.46-1.91-2.55s.45-1.97,1.38-2.66c.93-.7,2.26-1.05,3.96-1.05s3.16.39,4.19,1.15c1.03.76,1.66,1.82,1.87,3.17l.02.13h6.96l-.02-.17c-.39-3.21-1.74-5.73-4.01-7.49-2.26-1.76-5.25-2.65-8.89-2.65-3.94,0-7.05.97-9.25,2.88-2.2,1.92-3.32,4.34-3.32,7.21,0,2.08.62,3.75,1.84,4.98,1.21,1.21,2.74,2.16,4.57,2.81,1.8.65,3.65,1.18,5.48,1.57,2.33.47,4.18,1.01,5.5,1.59,1.28.57,1.91,1.62,1.91,3.23,0,1.08-.47,2.06-1.39,2.9-.93.84-2.43,1.27-4.48,1.27s-3.8-.53-5.07-1.57c-1.28-1.04-2.09-2.3-2.43-3.74l-.03-.12h-7.28l.02.17c.39,3.34,1.96,6.06,4.64,8.08,2.67,2.02,6.11,3.04,10.22,3.04s7.26-1,9.61-2.98c2.36-1.98,3.53-4.51,3.49-7.5,0-2.38-.59-4.22-1.74-5.46-1.14-1.23-2.67-2.18-4.54-2.82Z"/>
    <path class="b" d="M67.35,15.25c-2.37,0-4.56.55-6.51,1.62-1.79.99-3.25,2.34-4.32,4.01V1.53h-7.23v47.24h7.23v-16.89c0-3.35.85-5.95,2.54-7.74,1.68-1.79,3.83-2.7,6.4-2.7,4.96,0,7.37,3.03,7.37,9.26v18.06h7.16v-18.78c0-4.85-1.13-8.56-3.37-11.02-2.24-2.46-5.36-3.71-9.26-3.71h0Z"/>
    <path class="b" d="M135.4,17.14c-1.91,1.17-3.44,2.75-4.56,4.7l-.56-5.8h-6.5v32.73h7.23v-15.71c0-2.62.45-4.69,1.32-6.17.87-1.47,2.06-2.52,3.52-3.14,1.48-.62,3.19-.94,5.07-.94h2.05v-7.56h-.15c-2.89,0-5.39.64-7.43,1.88h0Z"/>
    <path class="b" d="M175.08,17.5c-2.41-1.49-5.23-2.25-8.38-2.25-2.89,0-5.3.6-7.14,1.79-1.71,1.1-3.11,2.37-4.14,3.79l-.68-4.79h-6.49v46.52h7.23v-18.4c1.11,1.64,2.59,2.95,4.39,3.88,1.95,1.01,4.23,1.52,6.77,1.52,3.19,0,6.04-.74,8.45-2.21,2.41-1.47,4.33-3.51,5.71-6.07,1.38-2.56,2.08-5.52,2.08-8.8s-.7-6.25-2.08-8.83c-1.38-2.58-3.3-4.65-5.71-6.14h0ZM175.51,32.4c0,3.21-.96,5.85-2.84,7.84-1.88,1.99-4.31,2.99-7.22,2.99s-5.32-1.01-7.18-2.99c-1.86-1.99-2.8-4.63-2.8-7.84s.94-5.8,2.8-7.81c1.86-2.01,4.27-3.03,7.18-3.03,1.97,0,3.72.47,5.22,1.38,1.49.92,2.68,2.21,3.54,3.83.86,1.63,1.29,3.52,1.29,5.62Z"/>
    <path class="b" d="M214.57,20.69c-1.08-1.66-2.54-2.98-4.36-3.92-1.95-1.01-4.25-1.52-6.84-1.52-3.15,0-5.98.74-8.41,2.21-2.43,1.47-4.35,3.51-5.71,6.07s-2.04,5.52-2.04,8.8.69,6.25,2.04,8.83c1.36,2.58,3.27,4.65,5.68,6.14,2.41,1.49,5.23,2.25,8.38,2.25,2.89,0,5.3-.6,7.14-1.79,1.71-1.1,3.09-2.36,4.12-3.76l.43,4.77h6.76V16.04h-6.82l-.37,4.65h0ZM211.72,24.56c1.86,1.99,2.8,4.63,2.8,7.84s-.94,5.8-2.8,7.81c-1.86,2.01-4.27,3.03-7.18,3.03-1.93,0-3.67-.47-5.18-1.39-1.52-.92-2.72-2.21-3.57-3.83-.86-1.62-1.29-3.52-1.29-5.62,0-3.22.96-5.85,2.84-7.84,1.88-1.99,4.31-2.99,7.22-2.99s5.32,1.01,7.18,2.99h0Z"/>
    <path class="b" d="M246.84,15.25c-2.54,0-4.82.59-6.78,1.75-1.81,1.08-3.23,2.54-4.24,4.35l-.49-5.32h-6.43v32.73h7.23v-16.89c0-3.35.83-5.95,2.48-7.74,1.64-1.79,3.75-2.7,6.27-2.7,5.09,0,7.57,3.03,7.57,9.26v18.06h7.16v-18.78c0-4.85-1.15-8.56-3.41-11.02-2.27-2.46-5.42-3.71-9.37-3.71Z"/>
    <polygon class="b" points="277.28 62.56 297.97 16.25 298.07 16.04 290.42 16.04 280.12 39.8 270.28 16.04 262.43 16.04 275.38 46.09 277.14 46.09 269.63 62.56 277.28 62.56"/>
    <path class="b" d="M110.4,17.4c-2.37-1.42-5.19-2.15-8.38-2.15s-6.2.73-8.67,2.18c-2.48,1.45-4.43,3.49-5.81,6.07-1.38,2.58-2.08,5.62-2.08,9.03s.71,6.36,2.11,8.9c1.4,2.54,3.37,4.55,5.84,5.97,2.48,1.42,5.35,2.14,8.54,2.14,3.85,0,7.13-1.05,9.74-3.11,2.6-2.06,4.37-4.66,5.25-7.73l.05-.19h-7.23l-.04.09c-.64,1.49-1.62,2.69-2.92,3.56-1.3.87-2.93,1.31-4.85,1.31-2.39,0-4.52-.81-6.34-2.41-1.78-1.57-2.8-3.89-3.04-6.9h25.22c.19-2,.56-6.12-1.32-10.08-1.55-3.26-3.7-5.27-6.07-6.7h0ZM92.71,29.18c.41-2.61,1.48-4.6,3.19-5.91,1.75-1.35,3.79-2.03,6.05-2.03,2.43,0,4.67.73,6.3,2.19,1.58,1.42,2.46,3.35,2.62,5.76h-18.16Z"/>
    <polygon class="d" points="23.1 10.36 19.13 0 12.56 3.04 17.89 12.78 23.1 10.36"/>
  </g>
</svg>